<svg width="128" height="151" viewBox="0 0 128 151" fill="none" xmlns="http://www.w3.org/2000/svg">
<path d="M64.9106 0.728449C88.528 36.5238 87.6253 67.8386 64.9599 86.3353C64.369 86.8113 63.6469 86.8277 63.056 86.3353C42.7375 69.529 38.8806 37.4101 63.0888 0.728449C63.3843 0.268903 64.6152 0.268903 64.9106 0.728449Z" fill="#DC4102"/>
<path d="M46.5289 54.1177C46.3155 51.6887 46.2827 49.194 46.3812 46.6337C46.6766 38.4111 48.7938 29.7454 51.8301 22.1136C55.6706 12.4632 60.6763 4.42109 63.171 0.597015C63.6798 -0.190778 64.3035 -0.20719 64.8286 0.597015C66.7325 3.502 72.7558 13.0376 76.6455 22.7701C79.4028 29.6633 81.5364 37.4756 82.1437 45.1073C82.3899 48.16 82.3899 51.1471 82.1273 54.1013C79.5505 53.4448 65.5016 44.2046 63.9916 30.2706C62.1863 44.2703 48.9579 54.1834 46.5289 54.1177Z" fill="#FC6502"/>
<path d="M128 80.5908L63.9918 135.917L0 80.5908C0 80.5908 0 91.3245 0 94.9845C0 95.3127 0.082061 95.9528 0.623669 96.4287C6.23669 101.254 48.3672 137.525 63.0563 150.179C63.3845 150.458 63.6964 150.606 63.9918 150.606C64.3036 150.59 64.6154 150.458 64.9273 150.179C79.6163 137.509 121.747 101.254 127.36 96.4287C127.901 95.9692 127.984 95.3127 127.984 94.9845C127.984 91.3245 128 80.5908 128 80.5908Z" fill="#DC4102"/>
<path d="M128 71.7615C128 71.2692 127.524 70.744 126.917 71.2692C112.425 83.8574 71.1968 119.669 64.796 124.97C64.4841 125.233 64.238 125.364 63.9918 125.364C63.7456 125.364 63.4994 125.233 63.1876 124.97C56.7867 119.686 15.5589 83.8574 1.08322 71.2692C0.475958 70.744 0 71.2692 0 71.7615C0 75.2245 0 85.63 0 85.63L63.9918 140.726L127.984 85.63C128 85.63 128 75.2245 128 71.7615Z" fill="#FC6502"/>
<path d="M1.11604 26.1666C5.8428 29.1865 24.3231 41.5778 32.7591 56.2997C39.2255 67.5914 40.6862 79.556 40.6862 79.556L0 54.1168C0 54.1168 0 33.5357 0 26.6918C0 26.3799 0.410308 25.707 1.11604 26.1666Z" fill="#FC6502"/>
<path d="M52.0108 101.401C37.0263 88.1562 31.364 82.2642 19.4651 75.0263C13.9177 71.6454 3.28247 65.0476 0.623669 63.39C0.229772 63.1438 0 62.7171 0 61.9457C0 59.9762 0 54.1006 0 54.1006C0 54.1006 25.9972 65.5236 40.6862 79.5397C57.5253 95.591 59.462 102.32 57.2627 103.617C55.4245 104.7 53.9146 103.091 52.0108 101.401Z" fill="#DC4102"/>
<path d="M126.868 26.3309C122.141 29.3508 103.661 41.7421 95.225 56.464C88.7585 67.7557 87.2979 79.7203 87.2979 79.7203L127.984 54.2811C127.984 54.2811 127.984 33.7 127.984 26.8561C128 26.5278 127.59 25.8713 126.868 26.3309Z" fill="#FC6502"/>
<path d="M75.9891 101.548C90.9736 88.3201 96.6359 82.4117 108.535 75.1738C114.082 71.7929 124.717 65.1951 127.376 63.5374C127.77 63.2913 128 62.8645 128 62.0932C128 60.1237 128 54.248 128 54.248C128 54.248 102.003 65.6711 87.3137 79.6872C70.4746 95.7385 68.5379 102.468 70.7372 103.764C72.559 104.864 74.0853 103.239 75.9891 101.548Z" fill="#DC4102"/>
</svg>
